# xmcd
#
# Track frame offsets: 
#        150
#        24910
#        49759
#        74517
#
# Disc length: 1322 seconds
#
# Revision: 4
# Processed by: cddbd v1.5.2PL0 Copyright (c) Steve Scherf et al.
# Submitted via: ExactAudioCopyFreeDBPlugin 1.0
#
DISCID=2e052804
DTITLE=SMAP - ココカラ
DYEAR=2014
DGENRE=J-Pop
TTITLE0=ココカラ
TTITLE1=Yes we are
TTITLE2=ココカラ （back track)
TTITLE3=Yes we are （back track)
EXTD=YEAR: 2014
EXTT0=
EXTT1=
EXTT2=
EXTT3=
PLAYORDER=
